<?xml version="1.0" standalone="no"?>
<!DOCTYPE svg PUBLIC "-//W3C//DTD SVG 20010904//EN"
 "http://www.w3.org/TR/2001/REC-SVG-20010904/DTD/svg10.dtd">
<svg version="1.0" xmlns="http://www.w3.org/2000/svg"
 width="500.000000pt" height="500.000000pt" viewBox="0 0 500.000000 500.000000"
 preserveAspectRatio="xMidYMid meet">
<metadata>
Created by potrace 1.14, written by Peter Selinger 2001-2017
</metadata>
<g transform="translate(0.000000,500.000000) scale(0.100000,-0.100000)"
fill="#000000" stroke="none">
<path d="M1145 4777 c-38 -18 -60 -43 -80 -90 -13 -31 -15 -101 -15 -456 0
-436 7 -562 42 -720 42 -196 143 -421 258 -576 115 -154 301 -324 440 -402 28
-15 50 -30 50 -33 0 -3 -22 -18 -50 -33 -139 -78 -324 -247 -440 -402 -73 -97
-179 -306 -219 -433 -68 -212 -78 -312 -80 -827 -2 -491 1 -518 79 -567 89
-55 217 -3 240 98 5 21 10 229 10 462 l0 422 1221 0 c1384 0 1267 7 1320 -84
l29 -51 0 51 c0 84 -20 252 -42 353 -83 389 -320 734 -651 949 -42 28 -83 53
-90 56 -8 4 -6 9 7 18 11 7 60 40 110 72 170 111 366 329 477 531 l32 60 -29
-27 c-46 -42 -75 -48 -242 -48 l-157 0 -45 -55 c-151 -185 -432 -341 -664
-370 -269 -34 -528 26 -749 172 -66 44 -257 217 -257 233 0 4 -25 45 -57 91
-116 174 -183 354 -208 562 l-6 57 -107 0 c-89 0 -112 3 -140 20 -96 58 -95
183 1 254 l28 21 1230 3 1229 2 0 -167 c0 -202 -28 -386 -74 -494 -6 -14 4
-17 71 -21 51 -3 90 -11 109 -22 47 -28 76 -78 76 -131 1 -44 2 -46 14 -24 20
37 72 194 96 294 20 85 22 118 25 623 4 527 4 533 -17 567 -23 38 -91 75 -136
75 -53 0 -117 -40 -141 -90 -22 -43 -23 -54 -23 -322 l0 -278 -1120 0 -1120 0
0 283 c0 273 -1 283 -23 321 -12 22 -34 48 -49 59 -34 26 -121 33 -163 14z
m1475 -2447 c309 -38 593 -211 767 -467 128 -188 201 -375 227 -585 l6 -48
-1120 0 c-1060 0 -1120 1 -1120 18 0 55 46 258 77 338 4 11 -9 14 -63 14 -78
0 -137 24 -169 68 -28 38 -28 130 1 168 48 65 60 69 247 72 l172 3 24 35 c33
47 129 135 215 195 220 156 474 221 736 189z"/>
<path d="M1305 1815 c-36 -35 -35 -96 1 -124 37 -29 70 -26 106 9 25 26 29 36
24 63 -7 39 -48 77 -82 77 -14 0 -36 -11 -49 -25z"/>
<path d="M1162 3997 c-49 -52 -16 -141 52 -141 48 0 80 31 80 79 0 73 -84 113
-132 62z"/>
<path d="M3615 3328 c-51 -29 -61 -93 -20 -133 33 -34 78 -33 111 2 32 35 27
87 -11 121 -29 24 -50 27 -80 10z"/>
<path d="M3738 1140 c-9 -6 -22 -26 -28 -44 -9 -28 -8 -40 4 -64 17 -33 34
-42 77 -42 65 0 95 92 46 138 -25 23 -70 28 -99 12z"/>
<path d="M3936 1030 c-30 -85 -80 -110 -215 -110 l-101 0 0 -287 c0 -259 2
-292 19 -329 52 -114 216 -123 283 -16 22 36 23 45 26 322 4 348 1 455 -12
420z"/>
</g>
</svg>
